<svg width="256" height="256" viewBox="0 0 256 256" fill="none" xmlns="http://www.w3.org/2000/svg">
  <defs>
    <linearGradient id="leluGrad" x1="40" y1="24" x2="216" y2="232" gradientUnits="userSpaceOnUse">
      <stop stop-color="#8B5CF6"/>
      <stop offset="0.5" stop-color="#3B82F6"/>
      <stop offset="1" stop-color="#06B6D4"/>
    </linearGradient>
  </defs>
  <rect x="16" y="16" width="224" height="224" rx="56" fill="#09090B"/>
  <path d="M128 32L56 66V126C56 172 86 211 128 224C170 211 200 172 200 126V66L128 32Z" fill="url(#leluGrad)"/>
  <path d="M93 92H132C154 92 170 107 170 128C170 149 154 164 132 164H113V196H93V92ZM132 146C143 146 150 139 150 128C150 117 143 110 132 110H113V146H132Z" fill="white"/>
</svg>
